<svg xmlns="http://www.w3.org/2000/svg" width="27" height="26" viewBox="0 0 27 26">
    <g fill="#1997AA" fill-rule="nonzero">
        <path d="M10.05 12.22c-.55.883-.688 1.698-.481 2.445.206.747.757 1.358 1.583 1.833.895.475 1.652.679 2.41.475.757-.136 1.377-.679 1.927-1.561l6.747-11.406c-1.515-1.494-3.374-2.58-5.508-3.191L10.051 12.22z"/>
        <path d="M24.439 6.721l-6.058 10.32c-.895 1.494-2.134 2.376-3.649 2.648-1.515.272-3.098-.136-4.75-1.086-1.652-.95-2.754-2.105-3.236-3.53-.55-1.427-.344-2.852.551-4.414L13.424.204h-.344C5.85.204 0 5.974 0 13.104c0 7.128 5.851 12.899 13.08 12.899 7.228 0 13.08-5.77 13.08-12.9 0-2.308-.62-4.548-1.721-6.382z"/>
    </g>
</svg>
