<?xml version="1.0" encoding="utf-8"?>
<!-- Generator: Adobe Illustrator 23.1.0, SVG Export Plug-In . SVG Version: 6.00 Build 0)  -->
<svg version="1.1" id="Layer_1" xmlns="http://www.w3.org/2000/svg" xmlns:xlink="http://www.w3.org/1999/xlink" x="0px" y="0px"
	 viewBox="0 0 16 18" style="enable-background:new 0 0 16 18;" xml:space="preserve">
<style type="text/css">
	.st0{fill:#0077B5;}
</style>
<g>
	<path class="st0" d="M15.1,16.9L15.1,16.9L15.1,16.9l0-5c0-2.5-0.5-4.3-3.4-4.3C10.3,7.5,9.4,8.3,9,9h0V7.7H6.3v9.1h2.8v-4.5
		c0-1.2,0.2-2.3,1.7-2.3c1.5,0,1.5,1.4,1.5,2.4v4.4H15.1z"/>
	<path class="st0" d="M1.7,7.7h2.8v9.1H1.7V7.7z"/>
	<path class="st0" d="M3.1,3.2c-0.9,0-1.6,0.7-1.6,1.6s0.7,1.7,1.6,1.7s1.6-0.8,1.6-1.7C4.7,3.9,4,3.2,3.1,3.2z"/>
</g>
</svg>
